<svg width="64" height="64" viewBox="0 0 64 64" xmlns="http://www.w3.org/2000/svg" role="img" aria-label="H">
  <rect width="64" height="64" rx="14" fill="#5f6039"/>
  <path transform="matrix(0.02229 0 0 -0.02229 5.000 47.690)" d="M190 -2Q111 -2 55.5 37.5Q0 77 0 132Q0 178 31.0 196.5Q62 215 93 215Q110 215 126.5 205.0Q143 195 143 170Q143 151 126.0 136.0Q109 121 86 121Q73 121 61.0 122.5Q49 124 39 130V124Q39 81 82.0 52.5Q125 24 198 24Q240 24 279.0 36.0Q318 48 359 68Q411 93 472.0 142.5Q533 192 617.0 283.5Q701 375 819 523Q758 505 712 490Q603 452 498.0 392.5Q393 333 338 250Q334 241 327 241Q320 241 322 249Q323 252 323.5 255.5Q324 259 329 269Q345 303 385.5 337.5Q426 372 475.0 403.0Q524 434 563 454Q608 477 676.0 502.0Q744 527 844 555Q967 722 1073.0 843.5Q1179 965 1241 1029Q1141 967 1073.5 943.5Q1006 920 957 920Q906 920 872.5 945.0Q839 970 839 1019Q839 1069 867.0 1118.0Q895 1167 977 1231Q1015 1262 1025.5 1275.0Q1036 1288 1036 1298Q1036 1328 1004.5 1347.0Q973 1366 905 1366Q831 1366 756.5 1338.5Q682 1311 623 1257Q608 1243 598 1243Q587 1243 587 1253Q587 1258 592.5 1264.0Q598 1270 605 1278Q661 1328 741.0 1357.5Q821 1387 905 1387Q988 1387 1034.0 1356.5Q1080 1326 1080 1273Q1080 1217 1048.5 1163.5Q1017 1110 926 1051Q894 1031 885.0 1020.5Q876 1010 876 996Q876 982 896.5 964.5Q917 947 970 947Q1033 947 1128.5 994.0Q1224 1041 1319 1124Q1411 1206 1472.0 1257.0Q1533 1308 1575.5 1338.5Q1618 1369 1654 1387Q1668 1393 1677.0 1397.0Q1686 1401 1690 1401Q1704 1401 1704 1394Q1704 1392 1683 1379Q1675 1375 1660.0 1365.5Q1645 1356 1610 1330Q1510 1248 1393.0 1099.0Q1276 950 1127 741Q1099 704 1071.0 669.5Q1043 635 1017 602Q1097 623 1193.0 646.5Q1289 670 1404 698Q1416 713 1429.0 728.0Q1442 743 1455 759Q1566 890 1693.5 1007.5Q1821 1125 1944.0 1215.5Q2067 1306 2169.5 1358.0Q2272 1410 2333 1410Q2377 1410 2400.0 1389.5Q2423 1369 2423 1339Q2423 1289 2362.0 1211.0Q2301 1133 2186.5 1044.0Q2072 955 1912.5 869.0Q1753 783 1555 718Q1450 590 1365.0 469.5Q1280 349 1229.5 255.5Q1179 162 1179 115Q1179 66 1198.0 44.5Q1217 23 1263 23Q1337 23 1417.5 80.0Q1498 137 1568.0 240.0Q1638 343 1679 480Q1687 510 1703 510Q1711 510 1714 481Q1718 438 1695.0 376.0Q1672 314 1627.0 248.5Q1582 183 1522.5 126.0Q1463 69 1394.5 33.5Q1326 -2 1255 -2Q1192 -2 1159.0 39.5Q1126 81 1126 127Q1126 222 1179.5 351.5Q1233 481 1379 667Q1288 642 1187.5 617.5Q1087 593 989 568Q834 381 707.0 259.0Q580 137 461 70Q394 31 322.5 14.5Q251 -2 190 -2ZM1585 753Q1754 817 1900.0 903.0Q2046 989 2155.5 1078.0Q2265 1167 2326.5 1241.0Q2388 1315 2388 1355Q2388 1389 2340 1389Q2282 1389 2195.5 1335.5Q2109 1282 2005.5 1191.5Q1902 1101 1794.0 987.0Q1686 873 1585 753Z" fill="#f4ecdd"/>
</svg>